<svg id="квадрат" xmlns="http://www.w3.org/2000/svg" width="722" height="720" viewBox="0 0 722 720">
  <metadata><?xpacket begin="﻿" id="W5M0MpCehiHzreSzNTczkc9d"?>
<x:xmpmeta xmlns:x="adobe:ns:meta/" x:xmptk="Adobe XMP Core 5.6-c142 79.160924, 2017/07/13-01:06:39        ">
   <rdf:RDF xmlns:rdf="http://www.w3.org/1999/02/22-rdf-syntax-ns#">
      <rdf:Description rdf:about=""/>
   </rdf:RDF>
</x:xmpmeta>
                                                                                                    
                                                                                                    
                                                                                                    
                                                                                                    
                                                                                                    
                                                                                                    
                                                                                                    
                                                                                                    
                                                                                                    
                                                                                                    
                                                                                                    
                                                                                                    
                                                                                                    
                                                                                                    
                                                                                                    
                                                                                                    
                                                                                                    
                                                                                                    
                                                                                                    
                                                                                                    
                           
<?xpacket end="w"?></metadata>
<defs>
    <style>
      .cls-1 {
        fill: #2f70d2;
      }

      .cls-1, .cls-2, .cls-3, .cls-4, .cls-5 {
        fill-rule: evenodd;
      }

      .cls-2 {
        fill: #45efb5;
      }

      .cls-3 {
        fill: #ffc000;
      }

      .cls-4 {
        fill: #db3333;
      }

      .cls-5 {
        fill: #fff;
      }
    </style>
  </defs>
  <path id="синий" class="cls-1" d="M0.031,720.687H39L232-.594H0.031V720.687Z"/>
  <path id="зеленый" class="cls-2" d="M37,720.687H178L370-.594H231Z"/>
  <path id="желтый" class="cls-3" d="M177,720.687H327L521-.594H370Z"/>
  <path id="красный" class="cls-4" d="M327,720.687H722.062V-0.594H520Z"/>
  <path id="G" class="cls-5" d="M627.54,622.652q-20.514,10.989-46.143,10.989-24.17,0-43.03-10.44a75.1,75.1,0,0,1-29.48-29.122q-10.626-18.682-10.621-42.494,0-24.177,10.621-42.859a73.562,73.562,0,0,1,29.663-28.94q19.038-10.251,43.579-10.257,38.814,0,66.285,28.94L686.5,463.3a121.213,121.213,0,0,0-46.142-32.969q-27.466-11.351-61.158-11.356-40.29,0-72.511,17.034t-50.354,47.255q-18.127,30.222-18.128,68.319T456.335,619.9a126.783,126.783,0,0,0,49.988,47.256q31.861,17.034,71.778,17.034a187.7,187.7,0,0,0,55.3-8.426,154.752,154.752,0,0,0,48.341-24.177V547.556h-54.2v75.1Z"/>
</svg>
